# xmcd CD database file
#
# Track frame offsets:
#	150
#	16232
#	44506
#	74456
#	97706
#	131302
#	149662
#	166988
#	190894
#	210236
#	256278
#	275553
#	292826
#
# Disc length: 4157 seconds
#
# Revision: 2
# Processed by: cddbd v1.5.2PL0 Copyright (c) Steve Scherf et al.
# Submitted via: CDex 1.70beta3
#
DISCID=b7103b0d
DTITLE=相対性理論 - 正しい相対性理論
DYEAR=2011
DGENRE=Rock
TTITLE0=Q P
TTITLE1=QJPCAM
TTITLE2=QGKGAO
TTITLE3=QSMJAF
TTITLE4=QHPMAS
TTITLE5=QMSMAS
TTITLE6=Q&Q
TTITLE7=QSSGAB
TTITLE8=QVSCAA
TTITLE9=QMCMAS
TTITLE10=QLOTAS
TTITLE11=QKMAC
TTITLE12=(1+1)
EXTD=YEAR: 2011
EXTT0=
EXTT1=
EXTT2=
EXTT3=
EXTT4=
EXTT5=
EXTT6=
EXTT7=
EXTT8=
EXTT9=
EXTT10=
EXTT11=
EXTT12=
PLAYORDER=
